<?xml version="1.0" encoding="UTF-8"?>
<svg width="467px" height="120px" viewBox="0 0 467 120" version="1.1" xmlns="http://www.w3.org/2000/svg" xmlns:xlink="http://www.w3.org/1999/xlink">
    <!-- Generator: Sketch 53.2 (72643) - https://sketchapp.com -->
    <title>Group</title>
    <desc>Created with Sketch.</desc>
    <defs>
        <linearGradient x1="-7.61056674%" y1="49.6444985%" x2="87.7383475%" y2="50.9360143%" id="linearGradient-1">
            <stop stop-color="#485FC7" offset="0%"></stop>
            <stop stop-color="#48C78E" offset="66.730891%"></stop>
            <stop stop-color="#485FC7" offset="100%"></stop>
        </linearGradient>
        <linearGradient x1="-7.61056674%" y1="49.9095771%" x2="87.7383475%" y2="50.2380781%" id="linearGradient-2">
            <stop stop-color="#485FC7" offset="0%"></stop>
            <stop stop-color="#48C78E" offset="66.730891%"></stop>
            <stop stop-color="#485FC7" offset="100%"></stop>
        </linearGradient>
    </defs>
    <g id="Page-1" stroke="none" stroke-width="1" fill="none" fill-rule="evenodd">
        <g id="Group" transform="translate(2.352000, 2.212000)" stroke-width="3">
            <path d="M26.996,54.468 C23.0066467,54.468 19.3573499,53.79934 16.048,52.462 C12.7386501,51.12466 9.8940119,49.2433455 7.514,46.818 C5.1339881,44.3926545 3.28667324,41.5140167 1.972,38.182 C0.65732676,34.8499833 2.55795385e-13,31.1893533 2.55795385e-13,27.2 C2.55795385e-13,23.2106467 0.65732676,19.5613499 1.972,16.252 C3.28667324,12.9426501 5.1339881,10.0753455 7.514,7.65 C9.8940119,5.22465454 12.7386501,3.34334002 16.048,2.006 C19.3573499,0.66865998 23.0066467,1.42108547e-14 26.996,1.42108547e-14 C30.9853533,1.42108547e-14 34.6233169,0.66865998 37.91,2.006 C41.1966831,3.34334002 44.0413213,5.22465454 46.444,7.65 C48.8466787,10.0753455 50.7053268,12.9426501 52.02,16.252 C53.3346732,19.5613499 53.992,23.2106467 53.992,27.2 C53.992,31.1893533 53.3346732,34.8499833 52.02,38.182 C50.7053268,41.5140167 48.8466787,44.3926545 46.444,46.818 C44.0413213,49.2433455 41.1966831,51.12466 37.91,52.462 C34.6233169,53.79934 30.9853533,54.468 26.996,54.468 Z M26.996,48.076 C29.9426814,48.076 32.651321,47.5433387 35.122,46.478 C37.592679,45.4126613 39.7346576,43.9393427 41.548,42.058 C43.3613424,40.1766573 44.7553285,37.9666794 45.73,35.428 C46.7046715,32.8893206 47.192,30.1466814 47.192,27.2 C47.192,24.2533186 46.7046715,21.5106794 45.73,18.972 C44.7553285,16.4333206 43.3613424,14.2233427 41.548,12.342 C39.7346576,10.4606573 37.592679,8.99867188 35.122,7.956 C32.651321,6.91332812 29.9426814,6.392 26.996,6.392 C24.0493186,6.392 21.340679,6.91332812 18.87,7.956 C16.399321,8.99867188 14.2686756,10.4606573 12.478,12.342 C10.6873244,14.2233427 9.29333832,16.4333206 8.296,18.972 C7.29866168,21.5106794 6.8,24.2533186 6.8,27.2 C6.8,30.1466814 7.29866168,32.8893206 8.296,35.428 C9.29333832,37.9666794 10.6873244,40.1766573 12.478,42.058 C14.2686756,43.9393427 16.399321,45.4126613 18.87,46.478 C21.340679,47.5433387 24.0493186,48.076 26.996,48.076 Z M67.864,69.7 C66.8666617,69.7 66.0393366,69.3713366 65.382,68.714 C64.7246634,68.0566634 64.396,67.2293383 64.396,66.232 L64.396,35.224 C64.4413336,31.6426488 65.2799918,28.4240143 66.912,25.568 C68.5440082,22.7119857 70.7653193,20.4566749 73.576,18.802 C76.3866807,17.1473251 79.5599823,16.32 83.096,16.32 C86.6773512,16.32 89.8733193,17.1473251 92.684,18.802 C95.4946807,20.4566749 97.7273251,22.7119857 99.382,25.568 C101.036675,28.4240143 101.864,31.6426488 101.864,35.224 C101.864,38.8053512 101.104674,42.0126525 99.586,44.846 C98.0673257,47.6793475 95.9933465,49.9233251 93.364,51.578 C90.7346535,53.2326749 87.7653499,54.06 84.456,54.06 C81.78132,54.06 79.3220112,53.5046722 77.078,52.394 C74.8339888,51.2833278 72.9186746,49.7760095 71.332,47.872 L71.332,66.232 C71.332,67.2293383 71.0146698,68.0566634 70.38,68.714 C69.7453302,69.3713366 68.9066719,69.7 67.864,69.7 Z M83.096,47.94 C85.4080116,47.94 87.4706576,47.3846722 89.284,46.274 C91.0973424,45.1633278 92.5366613,43.6446763 93.602,41.718 C94.6673387,39.7913237 95.2,37.6266787 95.2,35.224 C95.2,32.7759878 94.6673387,30.5886763 93.602,28.662 C92.5366613,26.7353237 91.0973424,25.2166722 89.284,24.106 C87.4706576,22.9953278 85.4080116,22.44 83.096,22.44 C80.829322,22.44 78.7780092,22.9953278 76.942,24.106 C75.1059908,25.2166722 73.6666719,26.7353237 72.624,28.662 C71.5813281,30.5886763 71.06,32.7759878 71.06,35.224 C71.06,37.6266787 71.5813281,39.7913237 72.624,41.718 C73.6666719,43.6446763 75.1059908,45.1633278 76.942,46.274 C78.7780092,47.3846722 80.829322,47.94 83.096,47.94 Z M116.67791,32.164 L139.326674,32.164 C139.126846,30.649603 138.720623,29.2556103 138.108,27.982 C137.246662,26.1913244 136.022675,24.7746719 134.436,23.732 C132.849325,22.6893281 130.922678,22.168 128.656,22.168 C126.071987,22.168 123.862009,22.734661 122.026,23.868 C120.189991,25.001339 118.796005,26.5539901 117.844,28.526 C117.299706,29.6534662 116.91101,30.8661287 116.67791,32.164 L116.67791,32.164 Z M116.601203,37.604 C116.851807,39.1540757 117.356738,40.582069 118.116,41.888 C119.249339,43.8373431 120.813323,45.378661 122.808,46.512 C124.802677,47.645339 127.091987,48.212 129.676,48.212 C131.08134,48.212 132.520659,47.9513359 133.994,47.43 C135.467341,46.9086641 136.657329,46.3080034 137.564,45.628 C138.244003,45.1293308 138.980663,44.8686668 139.774,44.846 C140.567337,44.8233332 141.258664,45.0613308 141.848,45.56 C142.618671,46.2400034 143.026666,46.9879959 143.072,47.804 C143.117334,48.6200041 142.754671,49.3226637 141.984,49.912 C140.442659,51.1360061 138.527345,52.1333295 136.238,52.904 C133.948655,53.6746705 131.761344,54.06 129.676,54.06 C125.913315,54.06 122.570015,53.2553414 119.646,51.646 C116.721985,50.0366586 114.432675,47.8153475 112.778,44.982 C111.123325,42.1486525 110.296,38.8960184 110.296,35.224 C110.296,31.5066481 111.077992,28.2313475 112.642,25.398 C114.206008,22.5646525 116.370653,20.3433414 119.136,18.734 C121.901347,17.1246586 125.074649,16.32 128.656,16.32 C132.192018,16.32 135.229321,17.1019922 137.768,18.666 C140.306679,20.2300078 142.24466,22.3833196 143.582,25.126 C144.91934,27.8686804 145.588,31.0306488 145.588,34.612 C145.588,35.4733376 145.293336,36.1873305 144.704,36.754 C144.114664,37.3206695 143.366671,37.604 142.46,37.604 L116.601203,37.604 L116.601203,37.604 Z M161.364,31.212 L161.364,50.388 C161.364,51.3853383 161.04667,52.2126634 160.412,52.87 C159.77733,53.5273366 158.938672,53.856 157.896,53.856 C156.898662,53.856 156.071337,53.5273366 155.414,52.87 C154.756663,52.2126634 154.428,51.3853383 154.428,50.388 L154.428,20.06 C154.428,19.0173281 154.756663,18.1786698 155.414,17.544 C156.071337,16.9093302 156.898662,16.592 157.896,16.592 C158.938672,16.592 159.77733,16.9093302 160.412,17.544 C161.04667,18.1786698 161.364,19.0173281 161.364,20.06 L161.364,20.7817028 C162.369107,19.791659 163.525104,18.9390942 164.832,18.224 C167.234679,16.9093268 169.931985,16.252 172.924,16.252 C176.052016,16.252 178.851321,16.92066 181.322,18.258 C183.792679,19.59534 185.741993,21.5559871 187.17,24.14 C188.598007,26.7240129 189.312,29.8973145 189.312,33.66 L189.312,50.388 C189.312,51.3853383 188.983337,52.2126634 188.326,52.87 C187.668663,53.5273366 186.841338,53.856 185.844,53.856 C184.846662,53.856 184.019337,53.5273366 183.362,52.87 C182.704663,52.2126634 182.376,51.3853383 182.376,50.388 L182.376,33.66 C182.376,31.0759871 181.900005,28.9680082 180.948,27.336 C179.995995,25.7039918 178.715341,24.4913373 177.106,23.698 C175.496659,22.9046627 173.649344,22.508 171.564,22.508 C169.65999,22.508 167.937341,22.8933295 166.396,23.664 C164.854659,24.4346705 163.630671,25.4659935 162.724,26.758 C161.817329,28.0500065 161.364,29.5346583 161.364,31.212 Z M228.329916,43.0123107 L247.996,2.584 C248.721337,1.31466032 249.763993,0.68 251.124,0.68 C252.121338,0.68 252.959997,1.00866338 253.64,1.666 C254.320003,2.32333662 254.66,3.17332812 254.66,4.216 L254.66,50.252 C254.66,51.2493383 254.30867,52.0879966 253.606,52.768 C252.90333,53.4480034 252.076005,53.788 251.124,53.788 C250.126662,53.788 249.288003,53.4480034 248.608,52.768 C247.927997,52.0879966 247.588,51.2493383 247.588,50.252 L247.588,16.4399084 L231.132,49.98 C230.361329,51.1586726 229.34134,51.748 228.072,51.748 C226.575993,51.748 225.488003,51.0453404 224.808,49.64 L208.556,17.073251 L208.556,50.252 C208.556,51.2493383 208.216003,52.0879966 207.536,52.768 C206.855997,53.4480034 206.017338,53.788 205.02,53.788 C204.022662,53.788 203.184003,53.4480034 202.504,52.768 C201.823997,52.0879966 201.484,51.2493383 201.484,50.252 L201.484,4.216 C201.484,3.17332812 201.823997,2.32333662 202.504,1.666 C203.184003,1.00866338 204.022662,0.68 205.02,0.68 C206.380007,0.68 207.422663,1.31466032 208.148,2.584 L228.329916,43.0123107 L228.329916,43.0123107 Z M272.05791,32.164 L294.706674,32.164 C294.506846,30.649603 294.100623,29.2556103 293.488,27.982 C292.626662,26.1913244 291.402675,24.7746719 289.816,23.732 C288.229325,22.6893281 286.302678,22.168 284.036,22.168 C281.451987,22.168 279.242009,22.734661 277.406,23.868 C275.569991,25.001339 274.176005,26.5539901 273.224,28.526 C272.679706,29.6534662 272.29101,30.8661287 272.05791,32.164 L272.05791,32.164 Z M271.981203,37.604 C272.231807,39.1540757 272.736738,40.582069 273.496,41.888 C274.629339,43.8373431 276.193323,45.378661 278.188,46.512 C280.182677,47.645339 282.471987,48.212 285.056,48.212 C286.46134,48.212 287.900659,47.9513359 289.374,47.43 C290.847341,46.9086641 292.037329,46.3080034 292.944,45.628 C293.624003,45.1293308 294.360663,44.8686668 295.154,44.846 C295.947337,44.8233332 296.638664,45.0613308 297.228,45.56 C297.998671,46.2400034 298.406666,46.9879959 298.452,47.804 C298.497334,48.6200041 298.134671,49.3226637 297.364,49.912 C295.822659,51.1360061 293.907345,52.1333295 291.618,52.904 C289.328655,53.6746705 287.141344,54.06 285.056,54.06 C281.293315,54.06 277.950015,53.2553414 275.026,51.646 C272.101985,50.0366586 269.812675,47.8153475 268.158,44.982 C266.503325,42.1486525 265.676,38.8960184 265.676,35.224 C265.676,31.5066481 266.457992,28.2313475 268.022,25.398 C269.586008,22.5646525 271.750653,20.3433414 274.516,18.734 C277.281347,17.1246586 280.454649,16.32 284.036,16.32 C287.572018,16.32 290.609321,17.1019922 293.148,18.666 C295.686679,20.2300078 297.62466,22.3833196 298.962,25.126 C300.29934,27.8686804 300.968,31.0306488 300.968,34.612 C300.968,35.4733376 300.673336,36.1873305 300.084,36.754 C299.494664,37.3206695 298.746671,37.604 297.84,37.604 L271.981203,37.604 L271.981203,37.604 Z M314.28591,32.164 L336.934674,32.164 C336.734846,30.649603 336.328623,29.2556103 335.716,27.982 C334.854662,26.1913244 333.630675,24.7746719 332.044,23.732 C330.457325,22.6893281 328.530678,22.168 326.264,22.168 C323.679987,22.168 321.470009,22.734661 319.634,23.868 C317.797991,25.001339 316.404005,26.5539901 315.452,28.526 C314.907706,29.6534662 314.51901,30.8661287 314.28591,32.164 L314.28591,32.164 Z M314.209203,37.604 C314.459807,39.1540757 314.964738,40.582069 315.724,41.888 C316.857339,43.8373431 318.421323,45.378661 320.416,46.512 C322.410677,47.645339 324.699987,48.212 327.284,48.212 C328.68934,48.212 330.128659,47.9513359 331.602,47.43 C333.075341,46.9086641 334.265329,46.3080034 335.172,45.628 C335.852003,45.1293308 336.588663,44.8686668 337.382,44.846 C338.175337,44.8233332 338.866664,45.0613308 339.456,45.56 C340.226671,46.2400034 340.634666,46.9879959 340.68,47.804 C340.725334,48.6200041 340.362671,49.3226637 339.592,49.912 C338.050659,51.1360061 336.135345,52.1333295 333.846,52.904 C331.556655,53.6746705 329.369344,54.06 327.284,54.06 C323.521315,54.06 320.178015,53.2553414 317.254,51.646 C314.329985,50.0366586 312.040675,47.8153475 310.386,44.982 C308.731325,42.1486525 307.904,38.8960184 307.904,35.224 C307.904,31.5066481 308.685992,28.2313475 310.25,25.398 C311.814008,22.5646525 313.978653,20.3433414 316.744,18.734 C319.509347,17.1246586 322.682649,16.32 326.264,16.32 C329.800018,16.32 332.837321,17.1019922 335.376,18.666 C337.914679,20.2300078 339.85266,22.3833196 341.19,25.126 C342.52734,27.8686804 343.196,31.0306488 343.196,34.612 C343.196,35.4733376 342.901336,36.1873305 342.312,36.754 C341.722664,37.3206695 340.974671,37.604 340.068,37.604 L314.209203,37.604 L314.209203,37.604 Z M353.6,23.8 L350.472,23.8 C349.519995,23.8 348.749336,23.5280027 348.16,22.984 C347.570664,22.4399973 347.276,21.7600041 347.276,20.944 C347.276,20.0373288 347.570664,19.3120027 348.16,18.768 C348.749336,18.2239973 349.519995,17.952 350.472,17.952 L353.6,17.952 L353.6,8.16 C353.6,7.16266168 353.91733,6.34666984 354.552,5.712 C355.18667,5.07733016 356.002662,4.76 357,4.76 C357.997338,4.76 358.81333,5.07733016 359.448,5.712 C360.08267,6.34666984 360.4,7.16266168 360.4,8.16 L360.4,17.952 L366.18,17.952 C367.132005,17.952 367.902664,18.2239973 368.492,18.768 C369.081336,19.3120027 369.376,20.0373288 369.376,20.944 C369.376,21.7600041 369.081336,22.4399973 368.492,22.984 C367.902664,23.5280027 367.132005,23.8 366.18,23.8 L360.4,23.8 L360.4,40.596 C360.4,42.4093424 360.898662,43.9279939 361.896,45.152 C362.893338,46.3760061 364.117326,46.988 365.568,46.988 L367.88,46.988 C368.696004,46.988 369.387331,47.3053302 369.954,47.94 C370.52067,48.5746698 370.804,49.3906617 370.804,50.388 C370.804,51.3853383 370.430004,52.2013302 369.682,52.836 C368.933996,53.4706698 367.970673,53.788 366.792,53.788 L365.568,53.788 C363.301322,53.788 361.261342,53.2100058 359.448,52.054 C357.634658,50.8979942 356.206672,49.3226766 355.164,47.328 C354.121328,45.3333234 353.6,43.0893458 353.6,40.596 L353.6,23.8 Z M406.504,39.168 L406.504,19.992 C406.504,18.9493281 406.832663,18.1106698 407.49,17.476 C408.147337,16.8413302 408.974662,16.524 409.972,16.524 C411.014672,16.524 411.85333,16.8413302 412.488,17.476 C413.12267,18.1106698 413.44,18.9493281 413.44,19.992 L413.44,50.32 C413.44,51.3173383 413.12267,52.1446634 412.488,52.802 C411.85333,53.4593366 411.014672,53.788 409.972,53.788 C408.974662,53.788 408.147337,53.4593366 407.49,52.802 C406.832663,52.1446634 406.504,51.3173383 406.504,50.32 L406.504,49.5952856 C405.506179,50.5890231 404.361515,51.4425918 403.07,52.156 C400.689988,53.4706732 397.981349,54.128 394.944,54.128 C391.815984,54.128 389.016679,53.45934 386.546,52.122 C384.075321,50.78466 382.126007,48.8240129 380.698,46.24 C379.269993,43.6559871 378.556,40.4826855 378.556,36.72 L378.556,19.992 C378.556,18.9946617 378.884663,18.1673366 379.542,17.51 C380.199337,16.8526634 381.026662,16.524 382.024,16.524 C383.021338,16.524 383.848663,16.8526634 384.506,17.51 C385.163337,18.1673366 385.492,18.9946617 385.492,19.992 L385.492,36.72 C385.492,39.2586794 385.967995,41.3553251 386.92,43.01 C387.872005,44.6646749 389.163992,45.8886627 390.796,46.682 C392.428008,47.4753373 394.26399,47.872 396.304,47.872 C398.253343,47.872 399.987326,47.4866705 401.506,46.716 C403.024674,45.9453295 404.237329,44.9026732 405.144,43.588 C406.050671,42.2733268 406.504,40.8000082 406.504,39.168 Z M429.148,69.7 C428.150662,69.7 427.323337,69.3713366 426.666,68.714 C426.008663,68.0566634 425.68,67.2293383 425.68,66.232 L425.68,35.224 C425.725334,31.6426488 426.563992,28.4240143 428.196,25.568 C429.828008,22.7119857 432.049319,20.4566749 434.86,18.802 C437.670681,17.1473251 440.843982,16.32 444.38,16.32 C447.961351,16.32 451.157319,17.1473251 453.968,18.802 C456.778681,20.4566749 459.011325,22.7119857 460.666,25.568 C462.320675,28.4240143 463.148,31.6426488 463.148,35.224 C463.148,38.8053512 462.388674,42.0126525 460.87,44.846 C459.351326,47.6793475 457.277346,49.9233251 454.648,51.578 C452.018654,53.2326749 449.04935,54.06 445.74,54.06 C443.06532,54.06 440.606011,53.5046722 438.362,52.394 C436.117989,51.2833278 434.202675,49.7760095 432.616,47.872 L432.616,66.232 C432.616,67.2293383 432.29867,68.0566634 431.664,68.714 C431.02933,69.3713366 430.190672,69.7 429.148,69.7 Z M444.38,47.94 C446.692012,47.94 448.754658,47.3846722 450.568,46.274 C452.381342,45.1633278 453.820661,43.6446763 454.886,41.718 C455.951339,39.7913237 456.484,37.6266787 456.484,35.224 C456.484,32.7759878 455.951339,30.5886763 454.886,28.662 C453.820661,26.7353237 452.381342,25.2166722 450.568,24.106 C448.754658,22.9953278 446.692012,22.44 444.38,22.44 C442.113322,22.44 440.062009,22.9953278 438.226,24.106 C436.389991,25.2166722 434.950672,26.7353237 433.908,28.662 C432.865328,30.5886763 432.344,32.7759878 432.344,35.224 C432.344,37.6266787 432.865328,39.7913237 433.908,41.718 C434.950672,43.6446763 436.389991,45.1633278 438.226,46.274 C440.062009,47.3846722 442.113322,47.94 444.38,47.94 Z" id="OpenMeetup" stroke="url(#linearGradient-1)" fill-rule="nonzero"></path>
            <polygon id="Path-2" stroke="url(#linearGradient-2)" points="0 102.546307 145.588 81.3536874 254.308 116 336.934674 81.3536874 456.484 89.6057521"></polygon>
        </g>
    </g>
</svg>